<?xml version="1.0" encoding="UTF-8"?> <svg xmlns="http://www.w3.org/2000/svg" id="a" version="1.1" viewBox="0 0 887.9 290.2"><defs><style> .st0 { fill: #21145f; } </style></defs><g><path class="st0" d="M279.1,118.6c-7.7-7.7-18.8-11.5-33-11.5s-13.4.8-19.6,1.9c-6.1.8-10.4,3.1-13.1,5.8-2.7,3.1-4.2,6.5-4.6,10.4-.4,3.8-.8,7.7-.8,11.5h11.9c.8-4.2,1.9-7.3,3.5-10s3.1-4.6,5-5.8c1.9-1.5,4.2-2.7,6.1-3.1,2.3-.8,4.6-.8,7.3-.8,6.5,0,11.5,2.3,15.4,7.7,3.5,5,5.4,14.2,5.4,27.3h-3.5c-11.5,0-21.5.8-28.8,1.9-7.7,1.5-13.8,3.8-18,6.5-4.6,2.7-7.7,6.1-9.2,10.4-1.9,3.8-2.7,8.4-2.7,13.8,0,8.8,3.1,15.7,9.6,21.1,6.1,5.4,15.4,8.1,27.6,8.1s8.4,0,11.9-1.5c3.1-1.2,5.8-2.7,8.1-4.2s4.2-3.8,6.1-6.1h.8l7.7,10h18.8v-58.7c0-15.7-4.2-27.3-11.9-34.5ZM262.6,189.2c-1.2,2.7-2.7,5-4.2,7.3-1.9,1.5-3.8,3.5-6.1,4.6-1.9,1.5-5,2.3-8.1,2.3-4.6,0-8.1-1.5-10.4-4.6-2.7-3.1-3.8-7.7-3.8-14.2s2.3-13.4,6.9-17.3c4.2-3.8,11.9-5.8,22.3-5.8h3.5s0,27.6,0,27.6Z"></path><path class="st0" d="M388.5,114.8s-1.9-2.3-3.5-3.1c-3.8-3.1-9.2-4.2-15.4-4.2s-12.3,1.2-16.5,3.5c-4.6,2.3-8.1,4.6-10.7,6.9-1.5-3.1-3.8-5-6.5-6.1s-6.9-1.9-11.5-1.9h-21.5v6.5h2.3c3.1,0,5.8.4,7.7,1.5s3.5,2.7,4.6,4.6,1.5,4.2,1.9,6.9c0,2.7.4,5.8.4,8.8v74.1h28.4v-80.6c0-1.2,0-2.3-.4-3.5,1.9-1.9,4.2-3.5,7.7-4.6,3.1-1.2,7.3-1.9,11.9-1.9s4.6.4,6.5,1.2,3.5,1.9,4.6,3.1c1.5,1.2,3.1,2.7,3.8,4.2l11.1-8.4s-1.2-2.3-1.9-3.5-1.5-1.9-2.3-3.1h0l-.8-.4Z"></path><path class="st0" d="M491.7,132.8c-2.3-5.4-5.8-10-10-13.8-4.2-3.5-9.6-6.5-15.4-8.4-5.8-2.3-11.9-3.5-18.8-3.5s-13.1,1.2-19.2,3.5c-5.8,2.3-10.7,5.8-15,10.4-4.2,4.2-7.7,10-10,16.5-2.7,6.9-3.8,14.6-3.8,23s1.2,15,3.5,21.5,5.8,11.9,10,16.9c4.2,4.6,9.6,8.4,15.7,11.1,6.1,2.7,13.1,3.8,21.1,3.8s11.1,0,15.4-1.9c4.6-1.5,8.4-3.5,11.5-5.8,3.5-2.3,6.1-4.6,8.4-7.3s4.2-5.4,5.8-7.7l-6.9-5c-3.8,5-8.1,9.2-12.7,12.7s-10.7,5.4-18.4,5.4-13.1-3.1-17.3-9.2c-4.6-5.8-6.5-16.1-6.5-30.3h65.3s.4-3.1.8-4.6c0-1.2,0-2.7.4-4.2v-5c0-6.5-1.2-12.7-3.8-18ZM429.2,154.7c0-7.3.4-13.4,1.5-18,.8-5,2.3-8.8,3.8-11.5,1.5-3.1,3.5-5,5.8-6.1,2.3-1.5,4.6-1.9,7.3-1.9s5.4.4,7.3,1.9c2.3,1.2,4.2,3.1,6.1,6.1,1.5,2.7,2.7,6.5,3.5,11.5,1.2,4.6,1.5,10.7,1.5,18,0,0-36.9,0-36.9,0Z"></path><path class="st0" d="M623.8,211.9v-10h-75.2v-105.6c0-5.4,0-10-.8-13.4-.8-3.8-1.5-6.5-3.1-8.8-1.5-2.3-3.5-3.8-6.1-4.6s-5.8-1.5-9.6-1.5h-26.1v6.5h2.3c6.5,0,10.7,1.9,12.7,6.1,1.9,3.8,2.7,9.2,2.7,15.7v115.5h103.6-.4Z"></path><path class="st0" d="M55.3,127.8c.8-4.6-1.2,9.6-1.2,14.6,0,10.4,1.5,20.3,5,29.2,3.1,8.8,7.7,16.9,13.8,23.4,6.1,6.9,13.4,11.9,22.6,15.7,8.8,3.8,19.2,5.8,30.7,5.8s28-2.7,37.6-8.4c10-5.8,18-14.6,25-26.5l-7.7-5.8c-5.4,10.4-12.3,18-20.7,23-8.4,5.4-18,8.1-28,8.1s-16.1-1.9-22.3-5.4c-6.1-3.5-11.1-8.4-15-14.2-3.8-6.1-6.5-12.7-8.4-20.7-1.9-7.7-2.7-15.7-2.7-24.2,0-13.1,1.2-24.2,3.8-33,2.3-8.8,5.8-15.7,10.4-21.1,4.2-5.4,9.6-9.2,15.4-11.1,5.8-2.3,11.9-3.1,18.8-3.1,11.9,0,21.9,3.5,29.2,10.7,7.3,6.9,12.3,17.3,15,30.3h6.5c0-6.5,0-12.7-.8-18.4-.4-6.1-1.9-10.7-5-14.6-4.2-4.6-10.4-8.8-18.8-12.3-8.4-3.5-19.2-5.4-33-5.4s-20,1.9-28.8,6.1-16.5,9.6-22.6,16.5c-5.4,5.8-9.6,12.7-13.1,20,0,0-5.4,15-6.5,21.1l.8-.4Z"></path><path class="st0" d="M815.3,116.7c-6.9-6.1-17.3-9.6-31.1-9.6s-8.4,0-11.9,1.2c-3.5.8-6.1,1.5-8.8,2.3s-4.6,1.9-6.5,3.1-3.5,2.3-4.6,3.5c-1.5-3.1-3.8-5-6.5-6.1s-6.5-1.9-11.5-1.9h-36.9l-26.5,70.2-25-54.9c-2.7-5.4-6.1-9.6-11.1-12.7-5-3.1-10.7-4.6-17.3-4.6h-19.2v4.2c8.8,1.2,15.4,6.9,20.3,17.3l39.2,86-4.6,11.9c-1.5,4.2-3.5,7.7-5.4,10.4s-4.2,5-6.9,6.5-5.4,2.7-8.4,3.5-6.5,1.2-10.4,1.2v7.7h8.8c3.8,0,7.3-.4,10.7-1.2,3.1-.8,6.1-2.3,9.2-4.6,2.7-2.3,5.4-5,7.7-8.8,2.3-3.8,4.6-8.8,6.9-14.6l41.5-110.2h8.4c3.1,0,5.8.4,7.7,1.5,1.9,1.2,3.5,2.7,4.6,4.6s1.5,4.2,1.9,6.9c0,2.7.4,5.8.4,8.8v74.1h28.4v-80.6c0-1.5,0-2.7-.8-3.8,0-1.2-.4-2.3-.8-3.1,1.9-1.9,4.6-3.5,8.1-5,3.5-1.2,7.3-1.9,11.9-1.9s10.7,2.3,15,6.5c3.8,4.2,5.8,11.9,5.8,22.6v64.9h28.4v-64.5c0-14.2-3.5-24.2-10.4-30.7h-.4Z"></path></g><path class="st0" d="M0,0v290.2h887.9V0H0ZM872.1,274.5H15.7V16.1h856.4v258.3Z"></path></svg> 